<svg width="140" height="32" viewBox="0 0 140 32" xmlns="http://www.w3.org/2000/svg">
  <defs>
    <linearGradient id="logo-grad" x1="0%" y1="0%" x2="100%" y2="100%">
      <stop offset="0%" style="stop-color:#7B2FF2"/>
      <stop offset="100%" style="stop-color:#C846E3"/>
    </linearGradient>
  </defs>
  <path d="M16 4c-1.1 0-2 .9-2 2 0 .65.31 1.22.78 1.58L9.03 10.46C8.42 10.76 8.03 11.39 8.03 12.08V18c0 1.1.9 2 2 2h12c1.1 0 2-.9 2-2v-5.92c0-.69-.42-1.32-1.03-1.62l-5.75-2.88c.48-.36.78-.93.78-1.58 0-1.1-.9-2-2-2z" fill="url(#logo-grad)" transform="translate(-4,-2) scale(1.2)"/>
  <text x="36" y="22" font-family="Inter, sans-serif" font-weight="800" font-size="18" fill="#1A1A2E">Provou</text>
  <text x="89" y="22" font-family="Inter, sans-serif" font-weight="800" font-size="18" fill="#7B2FF2">Levou</text>
</svg>
